<svg xmlns:inkscape="http://www.inkscape.org/namespaces/inkscape" xmlns:sodipodi="http://sodipodi.sourceforge.net/DTD/sodipodi-0.dtd" xmlns="http://www.w3.org/2000/svg" xmlns:svg="http://www.w3.org/2000/svg" version="1.1" id="svg185" xml:space="preserve" sodipodi:docname="RUBY rrrbb RMC.svg" inkscape:version="1.2.2 (732a01da63, 2022-12-09)" viewBox="6.24 23.46 170.85 40.98"><sodipodi:namedview id="namedview15" pagecolor="#ffffff" bordercolor="#000000" borderopacity="0.25" inkscape:showpageshadow="2" inkscape:pageopacity="0.0" inkscape:pagecheckerboard="0" inkscape:deskcolor="#d1d1d1" inkscape:document-units="mm" showgrid="false" inkscape:zoom="3.8814172" inkscape:cx="104.85861" inkscape:cy="31.947094" inkscape:window-width="1600" inkscape:window-height="836" inkscape:window-x="-4" inkscape:window-y="-4" inkscape:window-maximized="1" inkscape:current-layer="text564"/><defs id="defs182"/><g id="layer1" transform="matrix(0.79512581,-0.0349102,0,0.81729802,-53.74256,-27.348464)"><path style="opacity:0;fill:#ff0000;stroke-width:0.5869" d="m 90.738003,114.84996 c -6.794458,-1.46461 -14.96709,-8.3658 -14.96709,-12.63878 0,-2.442457 2.194357,-3.661813 3.966293,-2.20399 0.432177,0.35558 1.557459,1.74659 2.50061,3.09101 4.892929,6.97498 10.009335,10.5675 15.7418,11.0532 1.264922,0.10726 3.057604,0.30076 3.983644,0.43025 l 1.6838,0.23535 -1.6838,0.28056 c -2.701956,0.45032 -8.589646,0.32047 -11.225257,-0.2476 z" id="path4975"/><path style="opacity:0;fill:#ff0000;stroke-width:0.5869" d="m 90.738003,114.84996 c -6.794458,-1.46461 -14.96709,-8.3658 -14.96709,-12.63878 0,-2.442457 2.194357,-3.661813 3.966293,-2.20399 0.432177,0.35558 1.557459,1.74659 2.50061,3.09101 4.892929,6.97498 10.009335,10.5675 15.7418,11.0532 1.264922,0.10726 3.057604,0.30076 3.983644,0.43025 l 1.6838,0.23535 -1.6838,0.28056 c -2.701956,0.45032 -8.589646,0.32047 -11.225257,-0.2476 z" id="path4977"/><path style="opacity:0;fill:#ff0000;stroke-width:0.5869" d="m 90.738003,114.84996 c -6.794458,-1.46461 -14.96709,-8.3658 -14.96709,-12.63878 0,-2.442457 2.194357,-3.661813 3.966293,-2.20399 0.432177,0.35558 1.557459,1.74659 2.50061,3.09101 4.892929,6.97498 10.009335,10.5675 15.7418,11.0532 1.264922,0.10726 3.057604,0.30076 3.983644,0.43025 l 1.6838,0.23535 -1.6838,0.28056 c -2.701956,0.45032 -8.589646,0.32047 -11.225257,-0.2476 z" id="path4979"/><path style="opacity:0;fill:#ff0000;stroke-width:0.0733622" d="m 94.830572,115.50231 c -1.340325,-0.0408 -2.72027,-0.14608 -3.390989,-0.25906 -1.561196,-0.26311 -3.978103,-1.07421 -5.706206,-1.91481 -2.700452,-1.31352 -5.299023,-3.39935 -7.836721,-6.2904 -1.410738,-1.60702 -2.26233,-3.1468 -2.430322,-4.39417 -0.130067,-0.96559 0.241096,-2.12568 0.884479,-2.764354 0.479376,-0.475901 0.955152,-0.652353 1.758711,-0.652353 0.909673,0 1.407611,0.215187 2.108759,0.911417 0.557583,0.55355 0.765041,0.82397 1.866556,2.43281 0.457932,0.66886 1.101639,1.57385 1.430429,2.01117 4.070419,5.41393 8.477631,8.45732 13.607159,9.39643 1.064147,0.19481 1.829972,0.26362 3.441683,0.30924 1.51565,0.0431 2.17707,0.0904 2.67812,0.19132 0.68656,0.13887 0.82154,0.38559 0.30732,0.56187 -0.99692,0.34175 -5.242712,0.56611 -8.718978,0.46089 z" id="path4981"/><path style="opacity:1;fill:#ff0000;stroke-width:0.293452" d="m 93.07661,115.32924 c -1.527589,-0.1119 -2.477836,-0.31311 -4.273108,-0.90459 -3.864377,-1.27329 -6.654845,-3.07116 -9.682983,-6.23862 -3.263078,-3.41318 -4.155428,-5.42228 -3.272199,-7.36732 0.804229,-1.770894 2.805578,-2.055615 4.284711,-0.60955 0.324071,0.31686 1.369445,1.6802 2.323048,3.02964 1.911706,2.70524 4.779503,5.81757 6.678506,7.24823 3.427452,2.58182 7.583875,3.91548 12.208465,3.9171 0.79084,2.6e-4 1.67484,0.0936 1.96448,0.20689 l 0.52664,0.20636 -0.44834,0.17197 c -0.53715,0.20598 -5.193251,0.54225 -7.035172,0.50808 -0.720274,-0.0131 -2.19362,-0.0893 -3.274048,-0.16819 z" id="path5017"/><path style="opacity:1;fill:#ff0000;stroke-width:0.293452" d="M 94.370116,111.00941 C 89.337135,107.55462 86.126855,104.11119 83.90331,99.782432 80.576533,93.305855 79.971342,84.21854 82.662676,81.153272 c 0.697235,-0.794098 1.520619,-1.172869 2.54966,-1.172869 0.597224,0 0.902832,0.134619 1.471056,0.647977 1.204579,1.088265 1.359004,2.177822 0.876019,6.180764 -0.357443,2.962504 -0.358786,7.939629 -0.0022,10.13491 0.525197,3.238226 1.715074,6.252146 3.606505,9.135196 0.472545,0.72031 1.938278,2.38927 3.257192,3.70865 1.318895,1.31949 2.39804,2.43502 2.39804,2.479 0,0.29281 -0.75325,-0.0941 -2.448286,-1.25749 z" id="path5019"/><path style="opacity:1;fill:#000000;stroke-width:0.293452" d="m 91.904314,103.98695 c -0.502214,-0.87948 -1.835782,-6.509426 -2.207646,-9.320062 -0.31791,-2.402796 -0.122352,-7.535935 0.375586,-9.859416 1.211701,-5.653765 4.397617,-11.241633 8.708756,-15.274458 1.69178,-1.582536 2.46463,-1.948387 4.30482,-2.037734 1.27241,-0.06178 1.58946,-0.01433 2.11572,0.316801 0.68593,0.431694 1.33553,1.659372 1.3403,2.533265 0.006,1.512759 -0.24887,1.866508 -4.26799,5.873776 -5.301084,5.285368 -7.238885,7.924452 -8.900238,12.121174 -1.601589,4.045791 -1.987726,7.158863 -1.517145,12.231254 0.286014,3.08289 0.296776,3.85131 0.04789,3.4154 z" id="path5021"/><path style="opacity:1;fill:#ff0000;stroke-width:0.293452" d="m 91.752171,103.62629 c -0.408523,-1.03953 -0.912525,-2.94864 -1.519501,-5.755598 -0.588251,-2.720346 -0.611701,-2.988671 -0.60694,-6.945602 0.0033,-3.539046 0.063,-4.383119 0.419486,-6.022084 1.262127,-5.803495 4.387549,-11.302452 8.735794,-15.369992 1.69178,-1.582536 2.46463,-1.948387 4.30482,-2.037734 1.26011,-0.06122 1.59178,-0.01285 2.09713,0.305595 0.71621,0.451121 1.36444,1.635496 1.36301,2.490233 -0.002,1.583392 -0.247,1.929567 -4.00955,5.681068 -4.920415,4.906074 -6.592739,7.000133 -8.227147,10.301901 -2.400229,4.848809 -3.048633,9.049773 -2.372682,15.372243 0.250927,2.34702 0.195151,2.94586 -0.18442,1.97997 z" id="path5023"/><path style="opacity:1;fill:#000000;stroke-width:0.293452" d="m 94.503542,93.731427 c 0.430536,-1.964125 2.800655,-7.307037 4.526867,-10.204974 1.559651,-2.618268 2.779081,-4.225797 4.801261,-6.329156 4.39179,-4.568257 9.50624,-7.437548 15.90808,-8.924606 1.81278,-0.421099 2.70773,-0.523271 4.67423,-0.5337 2.1633,-0.01148 2.51728,0.03267 3.20226,0.399122 2.39149,1.279354 3.32949,3.404133 2.26907,5.139668 -0.9686,1.58534 -1.76698,1.868191 -7.32607,2.595539 -4.98831,0.652684 -7.71547,1.221635 -10.86725,2.26719 -6.53193,2.166804 -11.5023,6.43675 -15.466536,13.287154 -0.651443,1.125653 -1.333029,2.230802 -1.514668,2.45583 l -0.330279,0.409169 z" id="path5025"/><path style="opacity:1;fill:#000000;stroke-width:1.1091" d="m 534.92628,347.21709 c -1.36118,-0.51335 -8.36154,-3.9401 -15.55635,-7.615 -12.6612,-6.46698 -29.96313,-13.74283 -39.76607,-16.72253 -13.20812,-4.01474 -40.99075,-5.17748 -54.76702,-2.29209 -11.79388,2.47019 -22.49211,6.33443 -34.83228,12.58156 -6.39765,3.23877 -11.96612,5.87604 -12.37437,5.86059 -1.62918,-0.0616 6.87409,-6.89259 16.22829,-13.03674 27.27219,-17.91329 42.76667,-24.30488 67.88225,-28.00194 11.13455,-1.63902 20.16236,-1.71759 31.25325,-0.27198 14.87785,1.93921 27.69682,5.5784 40.66738,11.54509 18.47073,8.49687 26.73476,19.98045 22.18531,30.82843 -1.55593,3.71007 -3.01719,5.263 -6.4247,6.82773 -3.36108,1.54341 -10.78711,1.6955 -14.49569,0.29688 z" id="path5027" transform="scale(0.26458333)"/></g><g aria-label="RUBY MANUFACTURER" transform="matrix(1.4006003,0,0,1.5503878,-27.258262,-167.81399)" id="text564" style="font-size:9.87778px;font-family:Audiowide;-inkscape-font-specification:'Audiowide, Normal';white-space:pre;inline-size:337.446;display:inline;fill:#241c1c;stroke-width:0.414999"><path d="m 46.923511,143.19812 q 0,0.38879 -0.0961,0.69458 -0.09611,0.30579 -0.262107,0.54169 -0.161632,0.23153 -0.375685,0.39753 -0.214054,0.166 -0.449949,0.27521 -0.231528,0.10484 -0.471792,0.15289 -0.235895,0.0481 -0.44558,0.0481 l 2.372061,2.04879 h -1.756112 l -2.367693,-2.04879 h -0.816897 v -1.1358 h 2.568641 q 0.214053,-0.0175 0.388791,-0.0874 0.179106,-0.0743 0.30579,-0.19658 0.131053,-0.12231 0.200948,-0.29268 0.0699,-0.17474 0.0699,-0.39753 v -0.71642 q 0,-0.0961 -0.02621,-0.14416 -0.02184,-0.0524 -0.06116,-0.0743 -0.03495,-0.0262 -0.07863,-0.0306 -0.03932,-0.004 -0.07426,-0.004 h -3.748119 v 5.12854 H 40.66354 v -5.69207 q 0,-0.11795 0.04369,-0.22279 0.04368,-0.10484 0.117947,-0.18348 0.07863,-0.0786 0.183475,-0.12231 0.104842,-0.0437 0.227159,-0.0437 h 4.311647 q 0.380054,0 0.642161,0.13979 0.262106,0.13542 0.423738,0.34511 0.166001,0.20532 0.235896,0.44558 0.07426,0.24026 0.07426,0.44995 z" style="font-size:8.94656px" id="path398"/><path d="m 54.201328,146.78461 q 0,0.12231 -0.04368,0.22716 -0.04368,0.10484 -0.122317,0.18347 -0.07863,0.0743 -0.183474,0.11795 -0.104842,0.0437 -0.22279,0.0437 h -2.559905 q -0.36258,0 -0.733897,-0.0786 -0.371317,-0.0786 -0.720792,-0.24026 -0.345107,-0.166 -0.650897,-0.41937 -0.305791,-0.25337 -0.537318,-0.59848 -0.227159,-0.34947 -0.358212,-0.79505 -0.131053,-0.44995 -0.131053,-1.00038 v -3.13217 h 1.135793 v 3.13217 q 0,0.48053 0.131054,0.81253 0.135421,0.332 0.340738,0.55479 0.205316,0.22279 0.449949,0.34948 0.244632,0.12668 0.463054,0.18784 0.22279,0.0612 0.388791,0.0786 0.170369,0.0131 0.22279,0.0131 h 1.996376 v -5.12855 h 1.135794 z" style="font-size:8.94656px" id="path400"/><path d="m 61.77183,145.98081 q 0,0.20969 -0.07426,0.44995 -0.0699,0.24027 -0.235896,0.44558 -0.161632,0.20532 -0.423739,0.34511 -0.262106,0.13542 -0.64216,0.13542 h -4.311648 q -0.122316,0 -0.227158,-0.0437 -0.104843,-0.0437 -0.183475,-0.11795 -0.07426,-0.0786 -0.117948,-0.18347 -0.04368,-0.10485 -0.04368,-0.22716 v -5.11981 q 0,-0.11795 0.04368,-0.22279 0.04368,-0.10484 0.117948,-0.18348 0.07863,-0.0786 0.183475,-0.12231 0.104842,-0.0437 0.227158,-0.0437 h 3.800541 q 0.209685,0 0.449949,0.0743 0.240264,0.0743 0.445581,0.24026 0.209685,0.16163 0.345106,0.42374 0.13979,0.26211 0.13979,0.64216 v 0.21405 q 0,0.30143 -0.100474,0.6509 -0.100474,0.34511 -0.323264,0.65527 0.192211,0.11794 0.358212,0.28394 0.170369,0.166 0.297053,0.38443 0.126685,0.21842 0.200949,0.49363 0.07426,0.27521 0.07426,0.60721 z m -1.135794,-0.21842 q 0,-0.22279 -0.06989,-0.39752 -0.0699,-0.17911 -0.196579,-0.3058 -0.126685,-0.12668 -0.305791,-0.19221 -0.179106,-0.0699 -0.401896,-0.0699 H 57.10197 v -1.14453 h 2.048797 q 0.222791,0 0.401897,-0.0655 0.179106,-0.0699 0.30579,-0.19658 0.126685,-0.12668 0.192212,-0.30142 0.0699,-0.17911 0.0699,-0.4019 v -0.21405 q 0,-0.24463 -0.235896,-0.24463 h -3.237012 v 3.99275 h 3.748119 q 0.03058,0 0.07426,-0.004 0.04368,-0.004 0.07863,-0.0262 0.03495,-0.0218 0.06116,-0.0743 0.02621,-0.0524 0.02621,-0.14416 z" style="font-size:8.94656px" id="path402"/><path d="m 68.643382,143.18938 q 0,0.38879 -0.100474,0.69458 -0.09611,0.3058 -0.257738,0.54169 -0.161632,0.23153 -0.380054,0.39753 -0.214053,0.166 -0.445581,0.27521 -0.231527,0.10484 -0.471791,0.1529 -0.235895,0.048 -0.44558,0.048 h -0.458686 v 2.05753 h -1.144531 v -2.05753 h -0.454318 q -0.209685,0 -0.449949,-0.048 -0.235895,-0.0481 -0.471791,-0.1529 -0.231527,-0.10921 -0.44558,-0.27521 -0.214054,-0.166 -0.380054,-0.39753 -0.161633,-0.23589 -0.262107,-0.54169 -0.0961,-0.31015 -0.0961,-0.69458 v -2.09685 h 1.135793 v 2.09685 q 0,0.22279 0.06989,0.4019 0.0699,0.17474 0.19658,0.30142 0.126685,0.12669 0.305791,0.19658 0.183474,0.0655 0.406264,0.0655 h 2.048798 q 0.161632,-0.0262 0.332001,-0.0655 0.170369,-0.0437 0.310159,-0.14416 0.13979,-0.10047 0.231527,-0.27958 0.09174,-0.1791 0.09174,-0.47616 v -2.09685 h 1.135794 z" style="font-size:8.94656px" id="path404"/><path d="M 78.945558,147.35687 H 77.97711 v -3.15669 l -1.704025,2.99775 q -0.06284,0.11459 -0.177426,0.17373 -0.110891,0.0591 -0.240264,0.0591 -0.125676,0 -0.236567,-0.0591 -0.107195,-0.0591 -0.170033,-0.17373 l -1.711418,-2.99775 v 3.15669 h -0.961055 v -4.89029 q 0,-0.16634 0.09611,-0.29571 0.0998,-0.12937 0.258746,-0.17373 0.07762,-0.0185 0.155247,-0.0111 0.07762,0.004 0.147855,0.0333 0.07393,0.0259 0.133069,0.0776 0.05914,0.0481 0.0998,0.11829 l 2.188249,3.80356 2.18825,-3.80356 q 0.08502,-0.14047 0.232871,-0.19961 0.151551,-0.0591 0.314191,-0.0185 0.155248,0.0444 0.255049,0.17373 0.0998,0.12937 0.0998,0.29571 z" style="font-size:7.57016px" id="path406"/><path d="m 85.262648,147.35687 h -0.961056 v -1.30112 h -3.378479 v 1.30112 h -0.961056 v -2.65029 q 0,-0.58033 0.199604,-1.06825 0.199604,-0.48792 0.554455,-0.83908 0.354852,-0.35115 0.839076,-0.54706 0.484224,-0.19591 1.057161,-0.19591 h 2.166071 q 0.0998,0 0.188515,0.037 0.08871,0.037 0.155247,0.10349 0.06654,0.0665 0.103498,0.15525 0.03696,0.0887 0.03696,0.18852 z m -4.339535,-2.26217 h 3.378479 v -2.07736 h -1.689239 q -0.04436,0 -0.188515,0.0148 -0.140462,0.0111 -0.328977,0.0628 -0.184818,0.0518 -0.391815,0.15895 -0.206996,0.10719 -0.380725,0.2957 -0.17373,0.18852 -0.288317,0.47314 -0.110891,0.28092 -0.110891,0.68383 z" style="font-size:7.57016px" id="path408"/><path d="m 91.675846,146.94658 q 0,0.10349 -0.04066,0.19221 -0.03696,0.0887 -0.103498,0.15524 -0.06284,0.0628 -0.151551,0.0998 -0.08871,0.037 -0.188515,0.037 -0.08871,0 -0.181122,-0.0333 -0.08871,-0.0333 -0.158944,-0.10719 l -3.511548,-3.6668 v 3.73333 h -0.961056 v -4.89029 q 0,-0.14786 0.08132,-0.26614 0.08502,-0.12198 0.21439,-0.18112 0.136765,-0.0555 0.280923,-0.0259 0.144159,0.0259 0.247657,0.13307 l 3.511549,3.6631 v -3.73333 h 0.961055 z" style="font-size:7.57016px" id="path410"/><path d="m 97.985545,146.87265 q 0,0.1035 -0.03696,0.19221 -0.03696,0.0887 -0.103498,0.15525 -0.06654,0.0628 -0.155248,0.0998 -0.08871,0.037 -0.188514,0.037 h -2.166072 q -0.306798,0 -0.620989,-0.0665 -0.314192,-0.0665 -0.609901,-0.2033 -0.292013,-0.14046 -0.550759,-0.35485 -0.258745,-0.21439 -0.454653,-0.50641 -0.192211,-0.29571 -0.303102,-0.67273 -0.110891,-0.38073 -0.110891,-0.84647 v -2.6503 h 0.961056 v 2.6503 q 0,0.4066 0.110891,0.68752 0.114587,0.28093 0.288316,0.46944 0.17373,0.18851 0.380726,0.29571 0.206997,0.10719 0.391815,0.15894 0.188515,0.0518 0.328977,0.0665 0.144158,0.0111 0.188514,0.0111 h 1.68924 v -4.33954 h 0.961056 z" style="font-size:7.57016px" id="path412"/><path d="m 103.48574,145.1908 h -3.03841 v -0.96845 h 3.03841 z m 0.42878,-2.17346 h -3.85162 v 4.33953 h -0.961051 v -4.81636 q 0,-0.0998 0.03696,-0.18852 0.03696,-0.0887 0.0998,-0.15525 0.06654,-0.0665 0.155248,-0.10349 0.08871,-0.037 0.192211,-0.037 h 4.328447 z" style="font-size:7.57016px" id="path414"/><path d="m 109.82131,147.35687 h -0.96106 v -1.30112 h -3.37847 v 1.30112 h -0.96106 v -2.65029 q 0,-0.58033 0.1996,-1.06825 0.19961,-0.48792 0.55446,-0.83908 0.35485,-0.35115 0.83907,-0.54706 0.48423,-0.19591 1.05717,-0.19591 h 2.16607 q 0.0998,0 0.18851,0.037 0.0887,0.037 0.15525,0.10349 0.0665,0.0665 0.1035,0.15525 0.037,0.0887 0.037,0.18852 z m -4.33953,-2.26217 h 3.37847 v -2.07736 h -1.68923 q -0.0444,0 -0.18852,0.0148 -0.14046,0.0111 -0.32898,0.0628 -0.18481,0.0518 -0.39181,0.15895 -0.207,0.10719 -0.38073,0.2957 -0.17373,0.18852 -0.28831,0.47314 -0.11089,0.28092 -0.11089,0.68383 z" style="font-size:7.57016px" id="path416"/><path d="m 115.68375,147.35687 h -3.46719 q -0.13307,0 -0.28832,-0.0296 -0.15155,-0.0333 -0.3031,-0.0998 -0.14786,-0.0665 -0.28462,-0.17003 -0.13677,-0.1072 -0.24396,-0.25505 -0.1035,-0.15155 -0.16634,-0.34746 -0.0628,-0.1996 -0.0628,-0.44726 v -2.60224 q 0,-0.13307 0.0296,-0.28462 0.0333,-0.15525 0.0998,-0.30311 0.0665,-0.15155 0.17373,-0.28831 0.10719,-0.13677 0.25505,-0.24027 0.15155,-0.10719 0.34745,-0.17003 0.19591,-0.0628 0.44357,-0.0628 h 3.46719 v 0.96106 h -3.46719 q -0.18852,0 -0.28832,0.0998 -0.0998,0.0998 -0.0998,0.29571 v 2.59485 q 0,0.18482 0.0998,0.28832 0.1035,0.0998 0.28832,0.0998 h 3.46719 z" style="font-size:7.57016px" id="path418"/><path d="m 121.38355,143.01734 h -2.11802 v 4.33953 h -0.96106 v -4.33953 h -2.12171 v -0.96106 h 5.20079 z" style="font-size:7.57016px" id="path420"/><path d="m 127.28295,146.87265 q 0,0.1035 -0.037,0.19221 -0.037,0.0887 -0.1035,0.15525 -0.0665,0.0628 -0.15525,0.0998 -0.0887,0.037 -0.18851,0.037 h -2.16608 q -0.30679,0 -0.62099,-0.0665 -0.31419,-0.0665 -0.6099,-0.2033 -0.29201,-0.14046 -0.55075,-0.35485 -0.25875,-0.21439 -0.45466,-0.50641 -0.19221,-0.29571 -0.3031,-0.67273 -0.11089,-0.38073 -0.11089,-0.84647 v -2.6503 h 0.96105 v 2.6503 q 0,0.4066 0.1109,0.68752 0.11458,0.28093 0.28831,0.46944 0.17373,0.18851 0.38073,0.29571 0.20699,0.10719 0.39181,0.15894 0.18852,0.0518 0.32898,0.0665 0.14416,0.0111 0.18851,0.0111 h 1.68924 v -4.33954 h 0.96106 z" style="font-size:7.57016px" id="path422"/><path d="m 133.69615,143.83793 q 0,0.32898 -0.0813,0.58772 -0.0813,0.25875 -0.22178,0.45835 -0.13677,0.19591 -0.31789,0.33637 -0.18112,0.14046 -0.38073,0.23287 -0.1959,0.0887 -0.3992,0.12938 -0.19961,0.0407 -0.37703,0.0407 l 2.00712,1.73359 h -1.48594 l -2.00343,-1.73359 h -0.69122 v -0.96106 h 2.17347 q 0.18112,-0.0148 0.32897,-0.0739 0.15155,-0.0628 0.25875,-0.16633 0.11089,-0.1035 0.17003,-0.24766 0.0591,-0.14785 0.0591,-0.33637 v -0.6062 q 0,-0.0813 -0.0222,-0.12198 -0.0185,-0.0444 -0.0517,-0.0628 -0.0296,-0.0222 -0.0665,-0.0259 -0.0333,-0.004 -0.0628,-0.004 h -3.17148 v 4.33953 h -0.96106 v -4.81636 q 0,-0.0998 0.037,-0.18852 0.037,-0.0887 0.0998,-0.15525 0.0665,-0.0665 0.15525,-0.10349 0.0887,-0.037 0.19221,-0.037 h 3.64831 q 0.32159,0 0.54337,0.11829 0.22178,0.11458 0.35855,0.29201 0.14046,0.17373 0.1996,0.37703 0.0628,0.2033 0.0628,0.38072 z" style="font-size:7.57016px" id="path424"/><path d="m 139.01892,145.1908 h -3.03472 v -0.96845 h 3.03472 z m 0.43248,2.16607 h -3.4672 q -0.1996,0 -0.43617,-0.0702 -0.23657,-0.0702 -0.43987,-0.22917 -0.1996,-0.16264 -0.33636,-0.41769 -0.13307,-0.25875 -0.13307,-0.63208 v -3.46719 q 0,-0.0998 0.037,-0.18852 0.037,-0.0887 0.0998,-0.15525 0.0665,-0.0665 0.15525,-0.10349 0.0887,-0.037 0.19221,-0.037 h 4.32845 v 0.96106 h -3.85162 v 2.99036 q 0,0.18851 0.0998,0.28832 0.0998,0.0998 0.29202,0.0998 h 3.4598 z" style="font-size:7.57016px" id="path426"/><path d="m 145.67608,143.83793 q 0,0.32898 -0.0813,0.58772 -0.0813,0.25875 -0.22179,0.45835 -0.13676,0.19591 -0.31788,0.33637 -0.18113,0.14046 -0.38073,0.23287 -0.19591,0.0887 -0.39921,0.12938 -0.1996,0.0407 -0.37703,0.0407 l 2.00713,1.73359 h -1.48594 l -2.00343,-1.73359 h -0.69122 v -0.96106 h 2.17346 q 0.18112,-0.0148 0.32898,-0.0739 0.15155,-0.0628 0.25874,-0.16633 0.1109,-0.1035 0.17004,-0.24766 0.0591,-0.14785 0.0591,-0.33637 v -0.6062 q 0,-0.0813 -0.0222,-0.12198 -0.0185,-0.0444 -0.0517,-0.0628 -0.0296,-0.0222 -0.0665,-0.0259 -0.0333,-0.004 -0.0628,-0.004 h -3.17148 v 4.33953 h -0.96106 v -4.81636 q 0,-0.0998 0.037,-0.18852 0.037,-0.0887 0.0998,-0.15525 0.0665,-0.0665 0.15524,-0.10349 0.0887,-0.037 0.19222,-0.037 h 3.64831 q 0.32158,0 0.54337,0.11829 0.22178,0.11458 0.35854,0.29201 0.14047,0.17373 0.19961,0.37703 0.0628,0.2033 0.0628,0.38072 z" style="font-size:7.57016px" id="path428"/></g></svg>